# xmcd
#
# Track frame offsets: 
#        179
#        12378
#        26456
#        33728
#        47472
#        63797
#        77433
#        95382
#        105186
#        113792
#        119563
#        131701
#        144955
#        157118
#        165036
#        178715
#
# Disc length: 2727 seconds
#
# Revision: 1
# Processed by: cddbd v1.5.2PL0 Copyright (c) Steve Scherf et al.
# Submitted via: ExactAudioCopyFreeDBPlugin 1.0
#
DISCID=be0aa510
DTITLE=Johnny Cash - 1968 - Johnny Cash - At Folsom Prison
DYEAR=1968
DGENRE=Country
TTITLE0=Folsom Prison Blues
TTITLE1=Dark as the Dungeon
TTITLE2=I Still Miss Someone
TTITLE3=Cocaine Blues
TTITLE4=25 Minutes to Go
TTITLE5=Orange Blossom Special
TTITLE6=The Long Black Veil
TTITLE7=Send a Picture of Mother
TTITLE8=The Wall
TTITLE9=Dirty Old Egg-Sucking Dog
TTITLE10=Flushed from the Bathroom of Your Heart
TTITLE11=Jackson
TTITLE12=Give My Love to Rose
TTITLE13=I Got Stripes
TTITLE14=Green, Green Grass of Home
TTITLE15=Greystone Chapel
EXTD=
EXTT0=
EXTT1=
EXTT2=
EXTT3=
EXTT4=
EXTT5=
EXTT6=
EXTT7=
EXTT8=
EXTT9=
EXTT10=
EXTT11=
EXTT12=
EXTT13=
EXTT14=
EXTT15=
PLAYORDER=
